<svg xmlns="http://www.w3.org/2000/svg" viewBox="0 0 600 600" width="600" height="600"><defs><pattern id="a" width="22" height="18" patternUnits="userSpaceOnUse"><rect width="22" height="18" fill="#e9dcc3"/><path d="M1 1 L11 15 L21 1" fill="none" stroke="#b5ab98" stroke-width="4.5" stroke-linecap="round" stroke-linejoin="round"/><path d="M3 0 L11 11 L19 0" fill="none" stroke="#fff6da" stroke-width="1.6" stroke-linecap="round"/></pattern><pattern id="b" width="18" height="18" patternUnits="userSpaceOnUse"><rect width="18" height="18" fill="#e9dcc3"/><rect x="0" width="7" height="18" fill="#b5ab98"/><path d="M9 1 L12.5 15 L16 1" fill="none" stroke="#b5ab98" stroke-width="2.4" stroke-linecap="round"/></pattern><filter id="sh" x="-20%" y="-20%" width="140%" height="140%"><feDropShadow dx="0" dy="10" stdDeviation="12" flood-color="#000" flood-opacity=".18"/></filter></defs><rect width="600" height="600" fill="#dcd6cf"/><g filter="url(#sh)"><path d="M130 410 C130 80 470 80 470 410 Z" fill="url(#a)" stroke="#8b8475" stroke-width="5" stroke-linejoin="round"/><clipPath id="cp"><path d="M130 410 C130 80 470 80 470 410 Z"/></clipPath><g clip-path="url(#cp)"><path d="M210 150 q26 25 0 50 q-26 25 0 50 q26 25 0 50 q-26 25 0 50 q26 25 0 50" fill="none" stroke="#9e9584" stroke-width="9" stroke-linecap="round"/><path d="M210 150 q-26 25 0 50 q26 25 0 50 q-26 25 0 50 q26 25 0 50 q-26 25 0 50" fill="none" stroke="#fff2d6" stroke-width="9" stroke-linecap="round"/><path d="M300 150 q26 25 0 50 q-26 25 0 50 q26 25 0 50 q-26 25 0 50 q26 25 0 50" fill="none" stroke="#9e9584" stroke-width="9" stroke-linecap="round"/><path d="M300 150 q-26 25 0 50 q26 25 0 50 q-26 25 0 50 q26 25 0 50 q-26 25 0 50" fill="none" stroke="#fff2d6" stroke-width="9" stroke-linecap="round"/><path d="M390 150 q26 25 0 50 q-26 25 0 50 q26 25 0 50 q-26 25 0 50 q26 25 0 50" fill="none" stroke="#9e9584" stroke-width="9" stroke-linecap="round"/><path d="M390 150 q-26 25 0 50 q26 25 0 50 q-26 25 0 50 q26 25 0 50 q-26 25 0 50" fill="none" stroke="#fff2d6" stroke-width="9" stroke-linecap="round"/></g><rect x="112" y="395" width="376" height="95" rx="22" fill="url(#b)" stroke="#8b8475" stroke-width="5" stroke-linejoin="round"/></g></svg>