<svg xmlns="http://www.w3.org/2000/svg" viewBox="0 0 600 600" width="600" height="600"><defs><pattern id="a" width="18" height="16" patternUnits="userSpaceOnUse"><rect width="18" height="16" fill="#d59a96"/><path d="M3 3 L9 13 M15 3 L9 13" stroke="#a67875" stroke-width="3.4" stroke-linecap="round"/><path d="M1 15 H17" stroke="#eeaca8" stroke-width="1.6" stroke-linecap="round"/></pattern><filter id="sh" x="-20%" y="-20%" width="140%" height="140%"><feDropShadow dx="0" dy="10" stdDeviation="12" flood-color="#000" flood-opacity=".18"/></filter></defs><rect width="600" height="600" fill="#f0e7e4"/><g filter="url(#sh)"><g transform="translate(0 40) rotate(180 300 300)"><path d="M27 470 A39 44 0 0 1 105 470 Z" fill="url(#a)" stroke="#8a6461" stroke-width="4"/><path d="M66 470 L96 452" stroke="#9f7370" stroke-width="2.5"/><path d="M66 470 L83 437" stroke="#9f7370" stroke-width="2.5"/><path d="M66 470 L66 432" stroke="#9f7370" stroke-width="2.5"/><path d="M66 470 L49 437" stroke="#9f7370" stroke-width="2.5"/><path d="M66 470 L36 452" stroke="#9f7370" stroke-width="2.5"/><path d="M105 470 A39 44 0 0 1 183 470 Z" fill="url(#a)" stroke="#8a6461" stroke-width="4"/><path d="M144 470 L174 452" stroke="#9f7370" stroke-width="2.5"/><path d="M144 470 L161 437" stroke="#9f7370" stroke-width="2.5"/><path d="M144 470 L144 432" stroke="#9f7370" stroke-width="2.5"/><path d="M144 470 L127 437" stroke="#9f7370" stroke-width="2.5"/><path d="M144 470 L114 452" stroke="#9f7370" stroke-width="2.5"/><path d="M183 470 A39 44 0 0 1 261 470 Z" fill="url(#a)" stroke="#8a6461" stroke-width="4"/><path d="M222 470 L252 452" stroke="#9f7370" stroke-width="2.5"/><path d="M222 470 L239 437" stroke="#9f7370" stroke-width="2.5"/><path d="M222 470 L222 432" stroke="#9f7370" stroke-width="2.5"/><path d="M222 470 L205 437" stroke="#9f7370" stroke-width="2.5"/><path d="M222 470 L192 452" stroke="#9f7370" stroke-width="2.5"/><path d="M261 470 A39 44 0 0 1 339 470 Z" fill="url(#a)" stroke="#8a6461" stroke-width="4"/><path d="M300 470 L330 452" stroke="#9f7370" stroke-width="2.5"/><path d="M300 470 L317 437" stroke="#9f7370" stroke-width="2.5"/><path d="M300 470 L300 432" stroke="#9f7370" stroke-width="2.5"/><path d="M300 470 L283 437" stroke="#9f7370" stroke-width="2.5"/><path d="M300 470 L270 452" stroke="#9f7370" stroke-width="2.5"/><path d="M339 470 A39 44 0 0 1 417 470 Z" fill="url(#a)" stroke="#8a6461" stroke-width="4"/><path d="M378 470 L408 452" stroke="#9f7370" stroke-width="2.5"/><path d="M378 470 L395 437" stroke="#9f7370" stroke-width="2.5"/><path d="M378 470 L378 432" stroke="#9f7370" stroke-width="2.5"/><path d="M378 470 L361 437" stroke="#9f7370" stroke-width="2.5"/><path d="M378 470 L348 452" stroke="#9f7370" stroke-width="2.5"/><path d="M417 470 A39 44 0 0 1 495 470 Z" fill="url(#a)" stroke="#8a6461" stroke-width="4"/><path d="M456 470 L486 452" stroke="#9f7370" stroke-width="2.5"/><path d="M456 470 L473 437" stroke="#9f7370" stroke-width="2.5"/><path d="M456 470 L456 432" stroke="#9f7370" stroke-width="2.5"/><path d="M456 470 L439 437" stroke="#9f7370" stroke-width="2.5"/><path d="M456 470 L426 452" stroke="#9f7370" stroke-width="2.5"/><path d="M495 470 A39 44 0 0 1 573 470 Z" fill="url(#a)" stroke="#8a6461" stroke-width="4"/><path d="M534 470 L564 452" stroke="#9f7370" stroke-width="2.5"/><path d="M534 470 L551 437" stroke="#9f7370" stroke-width="2.5"/><path d="M534 470 L534 432" stroke="#9f7370" stroke-width="2.5"/><path d="M534 470 L517 437" stroke="#9f7370" stroke-width="2.5"/><path d="M534 470 L504 452" stroke="#9f7370" stroke-width="2.5"/><path d="M66 418 A39 44 0 0 1 144 418 Z" fill="url(#a)" stroke="#8a6461" stroke-width="4"/><path d="M105 418 L135 400" stroke="#9f7370" stroke-width="2.5"/><path d="M105 418 L122 385" stroke="#9f7370" stroke-width="2.5"/><path d="M105 418 L105 380" stroke="#9f7370" stroke-width="2.5"/><path d="M105 418 L88 385" stroke="#9f7370" stroke-width="2.5"/><path d="M105 418 L75 400" stroke="#9f7370" stroke-width="2.5"/><path d="M144 418 A39 44 0 0 1 222 418 Z" fill="url(#a)" stroke="#8a6461" stroke-width="4"/><path d="M183 418 L213 400" stroke="#9f7370" stroke-width="2.5"/><path d="M183 418 L200 385" stroke="#9f7370" stroke-width="2.5"/><path d="M183 418 L183 380" stroke="#9f7370" stroke-width="2.5"/><path d="M183 418 L166 385" stroke="#9f7370" stroke-width="2.5"/><path d="M183 418 L153 400" stroke="#9f7370" stroke-width="2.5"/><path d="M222 418 A39 44 0 0 1 300 418 Z" fill="url(#a)" stroke="#8a6461" stroke-width="4"/><path d="M261 418 L291 400" stroke="#9f7370" stroke-width="2.5"/><path d="M261 418 L278 385" stroke="#9f7370" stroke-width="2.5"/><path d="M261 418 L261 380" stroke="#9f7370" stroke-width="2.5"/><path d="M261 418 L244 385" stroke="#9f7370" stroke-width="2.5"/><path d="M261 418 L231 400" stroke="#9f7370" stroke-width="2.5"/><path d="M300 418 A39 44 0 0 1 378 418 Z" fill="url(#a)" stroke="#8a6461" stroke-width="4"/><path d="M339 418 L369 400" stroke="#9f7370" stroke-width="2.5"/><path d="M339 418 L356 385" stroke="#9f7370" stroke-width="2.5"/><path d="M339 418 L339 380" stroke="#9f7370" stroke-width="2.5"/><path d="M339 418 L322 385" stroke="#9f7370" stroke-width="2.5"/><path d="M339 418 L309 400" stroke="#9f7370" stroke-width="2.5"/><path d="M378 418 A39 44 0 0 1 456 418 Z" fill="url(#a)" stroke="#8a6461" stroke-width="4"/><path d="M417 418 L447 400" stroke="#9f7370" stroke-width="2.5"/><path d="M417 418 L434 385" stroke="#9f7370" stroke-width="2.5"/><path d="M417 418 L417 380" stroke="#9f7370" stroke-width="2.5"/><path d="M417 418 L400 385" stroke="#9f7370" stroke-width="2.5"/><path d="M417 418 L387 400" stroke="#9f7370" stroke-width="2.5"/><path d="M456 418 A39 44 0 0 1 534 418 Z" fill="url(#a)" stroke="#8a6461" stroke-width="4"/><path d="M495 418 L525 400" stroke="#9f7370" stroke-width="2.5"/><path d="M495 418 L512 385" stroke="#9f7370" stroke-width="2.5"/><path d="M495 418 L495 380" stroke="#9f7370" stroke-width="2.5"/><path d="M495 418 L478 385" stroke="#9f7370" stroke-width="2.5"/><path d="M495 418 L465 400" stroke="#9f7370" stroke-width="2.5"/><path d="M105 366 A39 44 0 0 1 183 366 Z" fill="url(#a)" stroke="#8a6461" stroke-width="4"/><path d="M144 366 L174 348" stroke="#9f7370" stroke-width="2.5"/><path d="M144 366 L161 333" stroke="#9f7370" stroke-width="2.5"/><path d="M144 366 L144 328" stroke="#9f7370" stroke-width="2.5"/><path d="M144 366 L127 333" stroke="#9f7370" stroke-width="2.5"/><path d="M144 366 L114 348" stroke="#9f7370" stroke-width="2.5"/><path d="M183 366 A39 44 0 0 1 261 366 Z" fill="url(#a)" stroke="#8a6461" stroke-width="4"/><path d="M222 366 L252 348" stroke="#9f7370" stroke-width="2.5"/><path d="M222 366 L239 333" stroke="#9f7370" stroke-width="2.5"/><path d="M222 366 L222 328" stroke="#9f7370" stroke-width="2.5"/><path d="M222 366 L205 333" stroke="#9f7370" stroke-width="2.5"/><path d="M222 366 L192 348" stroke="#9f7370" stroke-width="2.5"/><path d="M261 366 A39 44 0 0 1 339 366 Z" fill="url(#a)" stroke="#8a6461" stroke-width="4"/><path d="M300 366 L330 348" stroke="#9f7370" stroke-width="2.5"/><path d="M300 366 L317 333" stroke="#9f7370" stroke-width="2.5"/><path d="M300 366 L300 328" stroke="#9f7370" stroke-width="2.5"/><path d="M300 366 L283 333" stroke="#9f7370" stroke-width="2.5"/><path d="M300 366 L270 348" stroke="#9f7370" stroke-width="2.5"/><path d="M339 366 A39 44 0 0 1 417 366 Z" fill="url(#a)" stroke="#8a6461" stroke-width="4"/><path d="M378 366 L408 348" stroke="#9f7370" stroke-width="2.5"/><path d="M378 366 L395 333" stroke="#9f7370" stroke-width="2.5"/><path d="M378 366 L378 328" stroke="#9f7370" stroke-width="2.5"/><path d="M378 366 L361 333" stroke="#9f7370" stroke-width="2.5"/><path d="M378 366 L348 348" stroke="#9f7370" stroke-width="2.5"/><path d="M417 366 A39 44 0 0 1 495 366 Z" fill="url(#a)" stroke="#8a6461" stroke-width="4"/><path d="M456 366 L486 348" stroke="#9f7370" stroke-width="2.5"/><path d="M456 366 L473 333" stroke="#9f7370" stroke-width="2.5"/><path d="M456 366 L456 328" stroke="#9f7370" stroke-width="2.5"/><path d="M456 366 L439 333" stroke="#9f7370" stroke-width="2.5"/><path d="M456 366 L426 348" stroke="#9f7370" stroke-width="2.5"/><path d="M144 314 A39 44 0 0 1 222 314 Z" fill="url(#a)" stroke="#8a6461" stroke-width="4"/><path d="M183 314 L213 296" stroke="#9f7370" stroke-width="2.5"/><path d="M183 314 L200 281" stroke="#9f7370" stroke-width="2.5"/><path d="M183 314 L183 276" stroke="#9f7370" stroke-width="2.5"/><path d="M183 314 L166 281" stroke="#9f7370" stroke-width="2.5"/><path d="M183 314 L153 296" stroke="#9f7370" stroke-width="2.5"/><path d="M222 314 A39 44 0 0 1 300 314 Z" fill="url(#a)" stroke="#8a6461" stroke-width="4"/><path d="M261 314 L291 296" stroke="#9f7370" stroke-width="2.5"/><path d="M261 314 L278 281" stroke="#9f7370" stroke-width="2.5"/><path d="M261 314 L261 276" stroke="#9f7370" stroke-width="2.5"/><path d="M261 314 L244 281" stroke="#9f7370" stroke-width="2.5"/><path d="M261 314 L231 296" stroke="#9f7370" stroke-width="2.5"/><path d="M300 314 A39 44 0 0 1 378 314 Z" fill="url(#a)" stroke="#8a6461" stroke-width="4"/><path d="M339 314 L369 296" stroke="#9f7370" stroke-width="2.5"/><path d="M339 314 L356 281" stroke="#9f7370" stroke-width="2.5"/><path d="M339 314 L339 276" stroke="#9f7370" stroke-width="2.5"/><path d="M339 314 L322 281" stroke="#9f7370" stroke-width="2.5"/><path d="M339 314 L309 296" stroke="#9f7370" stroke-width="2.5"/><path d="M378 314 A39 44 0 0 1 456 314 Z" fill="url(#a)" stroke="#8a6461" stroke-width="4"/><path d="M417 314 L447 296" stroke="#9f7370" stroke-width="2.5"/><path d="M417 314 L434 281" stroke="#9f7370" stroke-width="2.5"/><path d="M417 314 L417 276" stroke="#9f7370" stroke-width="2.5"/><path d="M417 314 L400 281" stroke="#9f7370" stroke-width="2.5"/><path d="M417 314 L387 296" stroke="#9f7370" stroke-width="2.5"/><path d="M183 262 A39 44 0 0 1 261 262 Z" fill="url(#a)" stroke="#8a6461" stroke-width="4"/><path d="M222 262 L252 244" stroke="#9f7370" stroke-width="2.5"/><path d="M222 262 L239 229" stroke="#9f7370" stroke-width="2.5"/><path d="M222 262 L222 224" stroke="#9f7370" stroke-width="2.5"/><path d="M222 262 L205 229" stroke="#9f7370" stroke-width="2.5"/><path d="M222 262 L192 244" stroke="#9f7370" stroke-width="2.5"/><path d="M261 262 A39 44 0 0 1 339 262 Z" fill="url(#a)" stroke="#8a6461" stroke-width="4"/><path d="M300 262 L330 244" stroke="#9f7370" stroke-width="2.5"/><path d="M300 262 L317 229" stroke="#9f7370" stroke-width="2.5"/><path d="M300 262 L300 224" stroke="#9f7370" stroke-width="2.5"/><path d="M300 262 L283 229" stroke="#9f7370" stroke-width="2.5"/><path d="M300 262 L270 244" stroke="#9f7370" stroke-width="2.5"/><path d="M339 262 A39 44 0 0 1 417 262 Z" fill="url(#a)" stroke="#8a6461" stroke-width="4"/><path d="M378 262 L408 244" stroke="#9f7370" stroke-width="2.5"/><path d="M378 262 L395 229" stroke="#9f7370" stroke-width="2.5"/><path d="M378 262 L378 224" stroke="#9f7370" stroke-width="2.5"/><path d="M378 262 L361 229" stroke="#9f7370" stroke-width="2.5"/><path d="M378 262 L348 244" stroke="#9f7370" stroke-width="2.5"/><path d="M222 210 A39 44 0 0 1 300 210 Z" fill="url(#a)" stroke="#8a6461" stroke-width="4"/><path d="M261 210 L291 192" stroke="#9f7370" stroke-width="2.5"/><path d="M261 210 L278 177" stroke="#9f7370" stroke-width="2.5"/><path d="M261 210 L261 172" stroke="#9f7370" stroke-width="2.5"/><path d="M261 210 L244 177" stroke="#9f7370" stroke-width="2.5"/><path d="M261 210 L231 192" stroke="#9f7370" stroke-width="2.5"/><path d="M300 210 A39 44 0 0 1 378 210 Z" fill="url(#a)" stroke="#8a6461" stroke-width="4"/><path d="M339 210 L369 192" stroke="#9f7370" stroke-width="2.5"/><path d="M339 210 L356 177" stroke="#9f7370" stroke-width="2.5"/><path d="M339 210 L339 172" stroke="#9f7370" stroke-width="2.5"/><path d="M339 210 L322 177" stroke="#9f7370" stroke-width="2.5"/><path d="M339 210 L309 192" stroke="#9f7370" stroke-width="2.5"/><path d="M261 158 A39 44 0 0 1 339 158 Z" fill="url(#a)" stroke="#8a6461" stroke-width="4"/><path d="M300 158 L330 140" stroke="#9f7370" stroke-width="2.5"/><path d="M300 158 L317 125" stroke="#9f7370" stroke-width="2.5"/><path d="M300 158 L300 120" stroke="#9f7370" stroke-width="2.5"/><path d="M300 158 L283 125" stroke="#9f7370" stroke-width="2.5"/><path d="M300 158 L270 140" stroke="#9f7370" stroke-width="2.5"/></g></g></svg>